<svg width="223" height="54" viewBox="0 0 223 54" fill="none" xmlns="http://www.w3.org/2000/svg">
<path d="M30.1433 2H212.547C218.277 2 222.34 6.53963 220.589 10.9772L206.427 46.6482C205.305 49.4876 202.058 51.4089 198.386 51.4089H14.4853C8.63695 51.4089 4.5737 46.6992 6.52882 42.2276L22.1868 6.55663C23.3939 3.81925 26.5731 2 30.1433 2Z" fill="#333333" stroke="#FFEA17" stroke-width="3" stroke-miterlimit="10"/>
<path d="M1.79414 50.4585L208.097 44.9062L204.886 53.1835L1 52.5704L1.79414 50.4585Z" fill="#FFEA17" stroke="#FFEA17" stroke-miterlimit="10"/>
<path d="M129.917 19.6424H125.487L122.821 35.0164H119.164L121.83 19.6424H117.463L118.009 16.532H130.463L129.917 19.6424ZM133.802 35.2703C132.693 35.2619 131.75 34.991 130.971 34.4578C130.201 33.9246 129.642 33.1798 129.295 32.2234C128.957 31.2586 128.855 30.1626 128.991 28.9354L129.105 27.9959C129.384 25.7192 130.074 23.98 131.174 22.7781C132.283 21.5679 133.692 20.9839 135.402 21.0262C136.654 21.06 137.636 21.4536 138.347 22.2068C139.066 22.9516 139.485 23.9969 139.604 25.3426C139.672 26.1466 139.655 26.9337 139.553 27.7039L139.312 29.3543H132.456C132.414 29.7182 132.401 30.0695 132.418 30.408C132.478 31.6268 133.074 32.2488 134.208 32.2742C135.266 32.3081 136.29 31.9061 137.281 31.0682L138.461 33.2518C137.996 33.8865 137.344 34.3859 136.506 34.7498C135.677 35.1137 134.775 35.2873 133.802 35.2703ZM135.059 23.9842C134.052 23.9419 133.349 24.5851 132.952 25.9139L132.698 26.8406L136.189 26.8533C136.273 26.3624 136.32 25.9647 136.328 25.66C136.362 24.5851 135.939 24.0265 135.059 23.9842ZM148.833 24.7332L147.716 24.6063C146.777 24.5893 146.019 25.0337 145.444 25.9393L143.857 35.0164H140.34L142.727 21.2801L146.015 21.2674L145.736 22.7781C146.15 22.118 146.557 21.6567 146.954 21.3943C147.352 21.1235 147.78 20.9881 148.237 20.9881C148.508 20.9881 148.867 21.0516 149.316 21.1785L148.833 24.7332ZM157.339 24.7332L156.222 24.6063C155.283 24.5893 154.525 25.0337 153.95 25.9393L152.363 35.0164H148.846L151.233 21.2801L154.521 21.2674L154.242 22.7781C154.656 22.118 155.063 21.6567 155.46 21.3943C155.858 21.1235 156.286 20.9881 156.743 20.9881C157.013 20.9881 157.373 21.0516 157.822 21.1785L157.339 24.7332ZM161.046 35.0164H157.53L159.916 21.2801H163.433L161.046 35.0164ZM160.373 17.7889C160.373 17.2049 160.555 16.7309 160.919 16.367C161.292 15.9946 161.745 15.8084 162.278 15.8084C162.802 15.7915 163.247 15.965 163.611 16.3289C163.983 16.6844 164.169 17.1287 164.169 17.6619C164.169 18.2544 163.983 18.7368 163.611 19.1092C163.247 19.4731 162.798 19.6551 162.265 19.6551C161.723 19.672 161.271 19.5027 160.907 19.1473C160.551 18.7833 160.373 18.3305 160.373 17.7889ZM170.911 17.9031L170.327 21.2801H172.104L171.634 23.9842H169.857L168.689 30.9031L168.651 31.3094C168.617 31.8764 168.854 32.1684 169.362 32.1854C169.506 32.1938 169.793 32.1727 170.225 32.1219L169.908 34.9402C169.383 35.1518 168.773 35.2576 168.079 35.2576C167.055 35.2407 166.285 34.8725 165.769 34.1531C165.253 33.4337 165.054 32.452 165.172 31.2078L166.353 23.9842H164.804L165.274 21.2801H166.81L167.407 17.9031H170.911ZM178.591 21.0262C179.979 21.06 181.063 21.5298 181.841 22.4354C182.62 23.341 183.047 24.5555 183.123 26.0789V26.9803C183.013 29.6378 182.374 31.6987 181.206 33.1629C180.047 34.6186 178.532 35.3211 176.661 35.2703C175.57 35.2449 174.668 34.9529 173.957 34.3943C173.246 33.8273 172.734 33.0444 172.421 32.0457C172.117 31.047 172.032 29.9002 172.167 28.6053L172.244 27.9197C172.489 25.7615 173.179 24.0646 174.313 22.8289C175.447 21.5848 176.873 20.9839 178.591 21.0262ZM175.62 30.0399C175.62 31.504 176.069 32.2615 176.966 32.3123C178.185 32.38 178.976 31.449 179.34 29.5193L179.48 28.6053C179.598 27.3865 179.658 26.6037 179.658 26.2567C179.658 24.8009 179.196 24.0434 178.274 23.9842C177.605 23.9503 177.055 24.2593 176.623 24.9109C176.192 25.5626 175.917 26.5063 175.798 27.742C175.68 28.9692 175.62 29.7352 175.62 30.0399ZM192.505 24.7332L191.388 24.6063C190.449 24.5893 189.691 25.0337 189.116 25.9393L187.529 35.0164H184.012L186.399 21.2801L189.687 21.2674L189.408 22.7781C189.822 22.118 190.229 21.6567 190.626 21.3943C191.024 21.1235 191.452 20.9881 191.909 20.9881C192.179 20.9881 192.539 21.0516 192.988 21.1785L192.505 24.7332Z" fill="#F7F7F7"/>
<path d="M197.812 28.9734L200.922 21.2801H204.756L197.672 37.0858C197.156 38.3214 196.555 39.2143 195.87 39.7645C195.184 40.3231 194.393 40.6024 193.495 40.6024C193.132 40.6024 192.615 40.5135 191.947 40.3358L192.251 37.5301L192.632 37.5555C193.589 37.5724 194.291 37.145 194.74 36.2733L195.324 34.9656L193.902 21.2801H197.571L197.812 28.9734Z" fill="#FFEA17"/>
<path d="M33.8118 31.2332H28.8987L27.2864 35.0164H23.3254L32.136 16.532H35.4749L37.8997 35.0164H34.1292L33.8118 31.2332ZM30.2317 28.1229H33.5579L33.0374 21.5721L30.2317 28.1229Z" fill="#FFEA17"/>
<path d="M46.4817 33.7596C45.6184 34.7921 44.6112 35.2999 43.4602 35.283C42.5631 35.2746 41.8437 34.9741 41.302 34.3817C40.7603 33.7807 40.4472 32.964 40.3625 31.9315C40.3118 31.3305 40.316 30.7423 40.3752 30.1668L41.8606 21.2801H45.3645L43.8792 30.2176L43.8411 30.8397C43.8072 31.2628 43.8665 31.6056 44.0188 31.868C44.1796 32.1304 44.4166 32.2658 44.7297 32.2742C45.4237 32.2996 46.0585 31.9484 46.634 31.2205L48.3606 21.2801H51.9026L49.5159 35.0164H46.2532L46.4817 33.7596ZM59.1516 17.9031L58.5676 21.2801H60.345L59.8752 23.9842H58.0979L56.9299 30.9031L56.8918 31.3094C56.858 31.8764 57.095 32.1684 57.6028 32.1854C57.7467 32.1938 58.0344 32.1727 58.4661 32.1219L58.1487 34.9402C57.6239 35.1518 57.0146 35.2576 56.3206 35.2576C55.2965 35.2407 54.5263 34.8725 54.01 34.1531C53.4937 33.4337 53.2948 32.452 53.4133 31.2078L54.594 23.9842H53.0452L53.5149 21.2801H55.051L55.6477 17.9031H59.1516ZM66.8323 21.0262C68.2203 21.06 69.3036 21.5298 70.0823 22.4354C70.8609 23.341 71.2883 24.5555 71.3645 26.0789V26.9803C71.2545 29.6378 70.6155 31.6987 69.4475 33.1629C68.288 34.6186 66.773 35.3211 64.9026 35.2703C63.8108 35.2449 62.9094 34.9529 62.1985 34.3943C61.4875 33.8273 60.9755 33.0444 60.6624 32.0457C60.3577 31.047 60.273 29.9002 60.4084 28.6053L60.4846 27.9197C60.7301 25.7615 61.4198 24.0646 62.554 22.8289C63.6881 21.5848 65.1142 20.9839 66.8323 21.0262ZM63.8616 30.0399C63.8616 31.504 64.3101 32.2615 65.2073 32.3123C66.426 32.38 67.2174 31.449 67.5813 29.5193L67.7209 28.6053C67.8394 27.3865 67.8987 26.6037 67.8987 26.2567C67.8987 24.8009 67.4374 24.0434 66.5149 23.9842C65.8463 23.9503 65.2961 24.2593 64.8645 24.9109C64.4329 25.5626 64.1578 26.5063 64.0393 27.742C63.9208 28.9692 63.8616 29.7352 63.8616 30.0399Z" fill="#F7F7F7"/>
<path d="M80.2319 22.9444C79.9913 22.8842 79.7909 22.8441 79.5904 22.784C78.7282 22.5233 78.0867 21.7213 78.0065 20.839C77.9463 20.0971 78.3072 19.6961 79.049 19.676C79.9914 19.676 80.9136 19.656 81.856 19.676C82.1567 19.676 82.3371 19.5958 82.5176 19.3352C83.1191 18.3527 83.7406 17.3702 84.3621 16.3877C85.3446 14.8237 86.728 14.0016 88.6327 14.0217C92.5624 14.0417 96.4921 14.0417 100.422 14.0217C102.186 14.0217 103.489 14.8036 104.432 16.2473C105.113 17.29 105.775 18.3527 106.417 19.4154C106.537 19.6159 106.677 19.6961 106.918 19.6961C107.86 19.676 108.782 19.6961 109.725 19.6961C110.627 19.6961 111.048 20.1974 110.827 21.0796C110.587 22.0421 110.005 22.6436 109.023 22.8642C108.923 22.8842 108.802 22.9043 108.642 22.9444C108.802 23.205 108.963 23.4456 109.103 23.7063C109.805 24.8693 110.186 26.1325 110.186 27.4959C110.186 30.6841 110.186 33.8521 110.186 37.0402C110.186 37.9225 109.785 38.3435 108.903 38.3435C108.061 38.3435 107.219 38.3435 106.397 38.3435C105.534 38.3435 105.153 37.9425 105.133 37.0603C105.133 36.5791 105.133 36.0978 105.133 35.5966C97.9958 35.5966 90.8782 35.5966 83.7206 35.5966C83.7206 36.0978 83.7206 36.5791 83.7206 37.0603C83.7206 37.9225 83.3196 38.3235 82.4574 38.3235C81.5953 38.3235 80.7332 38.3235 79.8711 38.3235C79.1092 38.3235 78.6881 37.8824 78.6881 37.1204C78.6881 33.812 78.6681 30.5237 78.6881 27.2152C78.7082 26.0322 79.049 24.9094 79.6505 23.8868C79.831 23.5459 80.0314 23.2652 80.2319 22.9444ZM94.427 22.4631C98.1361 22.4631 101.845 22.4631 105.554 22.4631C106.296 22.4631 106.597 21.9218 106.216 21.3002C105.274 19.676 104.331 18.072 103.369 16.4679C102.808 15.5455 101.986 15.0643 100.883 15.0643C96.6124 15.0643 92.3218 15.0643 88.0512 15.0643C86.8483 15.0643 85.9861 15.5856 85.3847 16.6082C84.4824 18.1522 83.5602 19.7161 82.6379 21.2601C82.4574 21.5608 82.3572 21.8416 82.5577 22.1624C82.7381 22.4832 83.0389 22.5032 83.3597 22.5032C87.0688 22.4631 90.7579 22.4631 94.427 22.4631ZM94.3869 34.4536C94.5272 34.4536 94.6676 34.4536 94.7879 34.4536C96.2314 34.4536 97.695 34.4536 99.1386 34.4536C99.6599 34.4536 99.9005 34.213 99.9205 33.6917C99.9205 33.4912 99.9205 33.2706 99.9205 33.0701C99.9205 32.3282 99.7401 32.1277 98.9782 32.1277C96.2515 32.1277 93.5448 32.1277 90.8181 32.1277C90.4171 32.1277 89.996 32.1277 89.595 32.1277C89.174 32.1478 88.9334 32.3884 88.9134 32.7894C88.8933 33.0501 88.9134 33.3308 88.9134 33.6115C88.9134 34.2331 89.1339 34.4536 89.7554 34.4536C91.3193 34.4536 92.8631 34.4536 94.3869 34.4536ZM82.6579 25.7515C81.6755 25.7916 81.0941 26.1525 80.7733 26.8543C80.4525 27.5561 80.5928 28.2378 81.1141 28.7993C81.6555 29.3807 82.3371 29.5211 83.079 29.2604C83.7005 29.0399 84.302 28.9998 84.9035 29.2404C85.4448 29.4409 85.926 29.3406 86.327 28.9196C86.6879 28.5185 86.7881 28.0373 86.5676 27.5561C86.327 27.0147 85.8859 26.7541 85.3045 26.7741C84.6629 26.7942 84.1215 26.5736 83.6003 26.1926C83.2594 25.952 82.8584 25.8317 82.6579 25.7515ZM106.296 29.3807C107.219 29.3807 107.9 28.8795 108.161 28.1376C108.421 27.3756 108.141 26.5535 107.479 26.0924C106.838 25.6512 105.955 25.6513 105.354 26.1525C104.853 26.5736 104.291 26.8142 103.63 26.7741C103.028 26.7541 102.567 27.0147 102.326 27.5561C102.106 28.0574 102.206 28.5386 102.567 28.9196C102.968 29.3406 103.469 29.4409 104.031 29.2203C104.592 28.9998 105.153 29.0198 105.715 29.2203C105.935 29.3005 106.176 29.3406 106.296 29.3807Z" fill="#020202"/>
<path d="M95.3693 14H93.5047V15.0226H95.3693V14Z" fill="#020202"/>
<path d="M95.3693 22.4615H93.5047V32.1261H95.3693V22.4615Z" fill="#020202"/>
<path d="M95.3693 34.452H93.5047V35.3343H95.3693V34.452Z" fill="#020202"/>
<rect x="83.2166" y="34.8665" width="22.6054" height="1.73888" fill="#020202"/>
<circle cx="83.6851" cy="27.6923" r="3.92354" fill="#999999"/>
<circle cx="105.305" cy="27.6923" r="3.92354" fill="#999999"/>
<path d="M80.2319 22.9444C79.9913 22.8842 79.7909 22.8441 79.5904 22.784C78.7282 22.5233 78.0867 21.7213 78.0065 20.839C77.9463 20.0971 78.3072 19.6961 79.049 19.676C79.9914 19.676 80.9136 19.656 81.856 19.676C82.1567 19.676 82.3371 19.5958 82.5176 19.3352C83.1191 18.3527 83.7406 17.3702 84.3621 16.3877C85.3446 14.8237 86.728 14.0016 88.6327 14.0217C92.5624 14.0417 96.4921 14.0417 100.422 14.0217C102.186 14.0217 103.489 14.8036 104.432 16.2473C105.113 17.29 105.775 18.3527 106.417 19.4154C106.537 19.6159 106.677 19.6961 106.918 19.6961C107.86 19.676 108.782 19.6961 109.725 19.6961C110.627 19.6961 111.048 20.1974 110.827 21.0796C110.587 22.0421 110.005 22.6436 109.023 22.8642C108.923 22.8842 108.802 22.9043 108.642 22.9444C108.802 23.205 108.963 23.4456 109.103 23.7063C109.805 24.8693 110.186 26.1325 110.186 27.4959C110.186 30.6841 110.186 33.8521 110.186 37.0402C110.186 37.9225 109.785 38.3435 108.903 38.3435C108.061 38.3435 107.219 38.3435 106.397 38.3435C105.534 38.3435 105.153 37.9425 105.133 37.0603C105.133 36.5791 105.133 36.0978 105.133 35.5966C97.9958 35.5966 90.8782 35.5966 83.7206 35.5966C83.7206 36.0978 83.7206 36.5791 83.7206 37.0603C83.7206 37.9225 83.3196 38.3235 82.4574 38.3235C81.5953 38.3235 80.7332 38.3235 79.8711 38.3235C79.1092 38.3235 78.6881 37.8824 78.6881 37.1204C78.6881 33.812 78.6681 30.5237 78.6881 27.2152C78.7082 26.0322 79.049 24.9094 79.6505 23.8868C79.831 23.5459 80.0314 23.2652 80.2319 22.9444ZM94.427 22.4631C98.1361 22.4631 101.845 22.4631 105.554 22.4631C106.296 22.4631 106.597 21.9218 106.216 21.3002C105.274 19.676 104.331 18.072 103.369 16.4679C102.808 15.5455 101.986 15.0643 100.883 15.0643C96.6124 15.0643 92.3218 15.0643 88.0512 15.0643C86.8483 15.0643 85.9861 15.5856 85.3847 16.6082C84.4824 18.1522 83.5602 19.7161 82.6379 21.2601C82.4574 21.5608 82.3572 21.8416 82.5577 22.1624C82.7381 22.4832 83.0389 22.5032 83.3597 22.5032C87.0688 22.4631 90.7579 22.4631 94.427 22.4631ZM94.3869 34.4536C94.5272 34.4536 94.6676 34.4536 94.7879 34.4536C96.2314 34.4536 97.695 34.4536 99.1386 34.4536C99.6599 34.4536 99.9005 34.213 99.9205 33.6917C99.9205 33.4912 99.9205 33.2706 99.9205 33.0701C99.9205 32.3282 99.7401 32.1277 98.9782 32.1277C96.2515 32.1277 93.5448 32.1277 90.8181 32.1277C90.4171 32.1277 89.996 32.1277 89.595 32.1277C89.174 32.1478 88.9334 32.3884 88.9134 32.7894C88.8933 33.0501 88.9134 33.3308 88.9134 33.6115C88.9134 34.2331 89.1339 34.4536 89.7554 34.4536C91.3193 34.4536 92.8631 34.4536 94.3869 34.4536ZM82.6579 25.7515C81.6755 25.7916 81.0941 26.1525 80.7733 26.8543C80.4525 27.5561 80.5928 28.2378 81.1141 28.7993C81.6555 29.3807 82.3371 29.5211 83.079 29.2604C83.7005 29.0399 84.302 28.9998 84.9035 29.2404C85.4448 29.4409 85.926 29.3406 86.327 28.9196C86.6879 28.5185 86.7881 28.0373 86.5676 27.5561C86.327 27.0147 85.8859 26.7541 85.3045 26.7741C84.6629 26.7942 84.1215 26.5736 83.6003 26.1926C83.2594 25.952 82.8584 25.8317 82.6579 25.7515ZM106.296 29.3807C107.219 29.3807 107.9 28.8795 108.161 28.1376C108.421 27.3756 108.141 26.5535 107.479 26.0924C106.838 25.6512 105.955 25.6513 105.354 26.1525C104.853 26.5736 104.291 26.8142 103.63 26.7741C103.028 26.7541 102.567 27.0147 102.326 27.5561C102.106 28.0574 102.206 28.5386 102.567 28.9196C102.968 29.3406 103.469 29.4409 104.031 29.2203C104.592 28.9998 105.153 29.0198 105.715 29.2203C105.935 29.3005 106.176 29.3406 106.296 29.3807Z" fill="#020202"/>
<path d="M93.2482 14H91.3835V15.0226H93.2482V14Z" fill="#FEE90E"/>
<path d="M93.2482 22.4615H91.3835V32.1261H93.2482V22.4615Z" fill="#FFEA17"/>
<path d="M93.2482 34.452H91.3835V35.5548H93.2482V34.452Z" fill="#FFEA17"/>
<path d="M97.5104 14H95.6458V15.0226H97.5104V14Z" fill="#FFEA17"/>
<path d="M97.5104 22.4615H95.6458V32.1261H97.5104V22.4615Z" fill="#FFEA17"/>
<path d="M97.5104 34.452H95.6458V35.5548H97.5104V34.452Z" fill="#FFEA17"/>
</svg>
