<svg width="436" height="325" viewBox="0 0 436 325" fill="none" xmlns="http://www.w3.org/2000/svg">
<path d="M435.11 284.91H0V285.128H435.11V284.91Z" fill="#EBEBEB"/>
<path d="M391.512 298.912H362.691V299.13H391.512V298.912Z" fill="#EBEBEB"/>
<path d="M351.734 298.912H290.114V299.13H351.734V298.912Z" fill="#EBEBEB"/>
<path d="M256.132 290.836H239.432V291.054H256.132V290.836Z" fill="#EBEBEB"/>
<path d="M75.4916 292.298H45.6517V292.516H75.4916V292.298Z" fill="#EBEBEB"/>
<path d="M137.495 292.298H83.2366V292.516H137.495V292.298Z" fill="#EBEBEB"/>
<path d="M195.921 295.971H163.889V296.188H195.921V295.971Z" fill="#EBEBEB"/>
<path d="M206.242 246.098H38.2114C36.895 246.096 35.6334 245.572 34.7034 244.64C33.7734 243.708 33.2511 242.446 33.2511 241.129V4.92545C33.2626 3.61666 33.7899 2.36524 34.7187 1.44302C35.6474 0.520791 36.9025 0.00224203 38.2114 0H206.242C207.56 0 208.824 0.523514 209.756 1.45537C210.688 2.38724 211.211 3.65111 211.211 4.96896V241.129C211.211 242.447 210.688 243.711 209.756 244.643C208.824 245.575 207.56 246.098 206.242 246.098V246.098ZM38.2114 0.174045C36.9527 0.17635 35.7464 0.677958 34.8572 1.56877C33.9681 2.45958 33.4687 3.6668 33.4687 4.92545V241.129C33.4687 242.388 33.9681 243.595 34.8572 244.486C35.7464 245.377 36.9527 245.878 38.2114 245.881H206.242C207.502 245.879 208.709 245.377 209.599 244.487C210.49 243.596 210.991 242.389 210.994 241.129V4.92545C210.991 3.666 210.49 2.4588 209.599 1.56824C208.709 0.677676 207.502 0.176345 206.242 0.174045H38.2114Z" fill="#EBEBEB"/>
<path d="M394.48 246.098H226.44C225.123 246.096 223.86 245.572 222.929 244.64C221.998 243.709 221.473 242.447 221.471 241.129V4.92545C221.485 3.61586 222.014 2.36446 222.944 1.44247C223.874 0.520486 225.13 0.00221757 226.44 0H394.48C395.787 0.00452906 397.04 0.52409 397.967 1.44607C398.894 2.36805 399.42 3.61816 399.431 4.92545V241.129C399.431 242.444 398.91 243.705 397.982 244.637C397.054 245.568 395.794 246.094 394.48 246.098V246.098ZM226.44 0.174045C225.181 0.176345 223.973 0.677676 223.083 1.56824C222.192 2.4588 221.691 3.666 221.689 4.92545V241.129C221.691 242.389 222.192 243.596 223.083 244.487C223.973 245.377 225.181 245.879 226.44 245.881H394.48C395.739 245.879 396.946 245.377 397.837 244.487C398.727 243.596 399.229 242.389 399.231 241.129V4.92545C399.229 3.666 398.727 2.4588 397.837 1.56824C396.946 0.677676 395.739 0.176345 394.48 0.174045H226.44Z" fill="#EBEBEB"/>
<path d="M293.256 280.02H309.363V162.914H293.256V280.02Z" fill="#F0F0F0"/>
<path d="M128.836 284.902H306.274V280.02H128.836V284.902Z" fill="#FBF8D7"/>
<path d="M293.256 162.923H125.738V280.028H293.256V162.923Z" fill="#F5F5F5"/>
<path d="M293.256 162.923H309.363V158.659H293.256V162.923Z" fill="#E6E6E6"/>
<path d="M293.256 158.659H125.738V162.923H293.256V158.659Z" fill="#FBF8D7"/>
<path d="M287.469 198.236H131.534V171.869H287.469V198.236ZM132.613 197.148H286.39V172.956H132.613V197.148Z" fill="#FBF8D7"/>
<path d="M287.469 271.074H131.534V204.702H287.469V271.074ZM132.613 269.995H286.39V205.781H132.613V269.995Z" fill="#FBF8D7"/>
<path d="M152.541 175.88H266.462V172.417H152.541V175.88Z" fill="#999999"/>
<path d="M152.541 208.705H266.462V205.241H152.541V208.705Z" fill="#E0E0E0"/>
<path d="M366.276 281.804C365.933 281.801 365.606 281.664 365.364 281.421C365.123 281.178 364.988 280.849 364.988 280.507V79.4163C364.988 79.0748 365.123 78.7472 365.365 78.5056C365.607 78.2641 365.934 78.1284 366.276 78.1284V78.1284C366.617 78.1284 366.945 78.2641 367.186 78.5056C367.428 78.7472 367.564 79.0748 367.564 79.4163V280.507C367.564 280.849 367.428 281.178 367.187 281.421C366.946 281.664 366.618 281.801 366.276 281.804V281.804Z" fill="#2E353A"/>
<path d="M363.683 278.688H368.904C369.841 278.688 370.74 279.06 371.402 279.723C372.065 280.385 372.437 281.284 372.437 282.221V284.901H360.149V282.221C360.149 281.284 360.522 280.385 361.184 279.723C361.847 279.06 362.745 278.688 363.683 278.688V278.688Z" fill="#F0F0F0"/>
<path d="M341.248 106.167C341.248 106.167 341.884 81.5571 366.276 81.5571C390.668 81.5571 391.312 106.167 391.312 106.167H341.248Z" fill="#FBF8D7"/>
<path d="M68.8345 281.804C68.4906 281.804 68.1608 281.667 67.9176 281.424C67.6744 281.181 67.5378 280.851 67.5378 280.507V79.4163C67.5401 79.074 67.6778 78.7464 67.9207 78.5051C68.1636 78.2638 68.4921 78.1284 68.8345 78.1284C69.176 78.1284 69.5036 78.2641 69.7452 78.5056C69.9867 78.7472 70.1224 79.0748 70.1224 79.4163V280.507C70.1224 280.849 69.987 281.178 69.7457 281.421C69.5044 281.664 69.1768 281.801 68.8345 281.804V281.804Z" fill="#2E353A"/>
<path d="M66.2412 278.688H71.4626C72.3996 278.688 73.2982 279.06 73.9608 279.723C74.6234 280.385 74.9956 281.284 74.9956 282.221V284.901H62.7081V282.221C62.7081 281.757 62.7995 281.298 62.9771 280.869C63.1546 280.44 63.4149 280.051 63.743 279.723C64.071 279.395 64.4605 279.134 64.8892 278.957C65.3178 278.779 65.7773 278.688 66.2412 278.688V278.688Z" fill="#F0F0F0"/>
<path d="M43.7982 106.167C43.7982 106.167 44.4335 81.5571 68.8345 81.5571C93.2354 81.5571 93.862 106.167 93.862 106.167H43.7982Z" fill="#FBF8D7"/>
<path d="M248.927 156.814H187.019V158.659H248.927V156.814Z" fill="#E0E0E0"/>
<path d="M248.927 156.814H187.019L192.971 121.37H254.879L248.927 156.814Z" fill="#E0E0E0"/>
<path d="M247.778 156.814H185.87L191.823 121.37H253.73L247.778 156.814Z" fill="#EBEBEB"/>
<path d="M188.22 154.029L193.285 123.893C193.314 123.707 193.409 123.538 193.553 123.417C193.697 123.295 193.88 123.23 194.068 123.232H250.632C250.747 123.232 250.861 123.257 250.966 123.305C251.071 123.353 251.163 123.424 251.238 123.511C251.313 123.599 251.367 123.702 251.398 123.813C251.428 123.924 251.434 124.041 251.415 124.154L246.351 154.29C246.32 154.476 246.225 154.645 246.081 154.768C245.938 154.891 245.756 154.959 245.568 154.96H189.003C188.887 154.961 188.772 154.936 188.667 154.887C188.562 154.838 188.468 154.767 188.394 154.678C188.319 154.589 188.265 154.485 188.235 154.373C188.205 154.261 188.2 154.143 188.22 154.029V154.029Z" fill="#FAFAFA"/>
<path d="M234.916 156.814H173.009V158.659H234.916V156.814Z" fill="#F0F0F0"/>
<path d="M298.39 28.5085H134.371V81.5224H298.39V28.5085Z" fill="#FBF8D7"/>
<path d="M298.39 81.5135H300.74V28.4997H298.39V81.5135Z" fill="#FBF8D7"/>
<path d="M291.202 35.6876H141.55V74.3341H291.202V35.6876Z" fill="white"/>
<path d="M225.387 55.0122L216.379 46.0037L207.37 55.0122L216.379 64.0208L225.387 55.0122Z" fill="#FBF8D7"/>
<path d="M201.203 55.0116L192.195 46.0031L183.186 55.0116L192.195 64.0202L201.203 55.0116Z" fill="#FBF8D7"/>
<path d="M177.019 55.0114L168.011 46.0028L159.002 55.0114L168.011 64.0199L177.019 55.0114Z" fill="#FBF8D7"/>
<path d="M249.571 55.0125L240.562 46.0039L231.554 55.0125L240.562 64.021L249.571 55.0125Z" fill="#FBF8D7"/>
<path d="M273.755 55.0129L264.746 46.0044L255.738 55.013L264.746 64.0215L273.755 55.0129Z" fill="#FBF8D7"/>
<path d="M217.555 324.209C310.741 324.209 386.282 319.799 386.282 314.359C386.282 308.918 310.741 304.508 217.555 304.508C124.37 304.508 48.8281 308.918 48.8281 314.359C48.8281 319.799 124.37 324.209 217.555 324.209Z" fill="#F7F0A6" fill-opacity="0.45"/>
<path d="M315.838 59.2186C315.918 58.2124 315.787 57.2006 315.454 56.2479C315.121 55.2951 314.592 54.4224 313.903 53.6853C313.213 52.9483 312.378 52.3631 311.449 51.9673C310.521 51.5715 309.52 51.3737 308.51 51.3866H188.046C185.927 51.4167 183.896 52.2361 182.349 53.6845C180.803 55.133 179.852 57.1063 179.683 59.2186L176.916 100.946L159.572 229.225C159.403 230.201 159.453 231.203 159.718 232.158C159.983 233.113 160.457 233.998 161.106 234.747C161.755 235.496 162.562 236.092 163.469 236.492C164.376 236.891 165.361 237.084 166.351 237.057H286.825C288.99 236.999 291.067 236.184 292.694 234.753C294.32 233.322 295.394 231.366 295.727 229.225L313.07 100.946L315.838 59.2186Z" fill="#237F52"/>
<path opacity="0.2" d="M315.838 59.2186C315.918 58.2124 315.787 57.2006 315.454 56.2479C315.121 55.2951 314.592 54.4224 313.903 53.6853C313.213 52.9483 312.378 52.3631 311.449 51.9673C310.521 51.5715 309.52 51.3737 308.51 51.3866H188.046C185.927 51.4167 183.896 52.2361 182.349 53.6845C180.803 55.133 179.852 57.1063 179.683 59.2186L176.916 100.946L159.572 229.225C159.403 230.201 159.453 231.203 159.718 232.158C159.983 233.113 160.457 233.998 161.106 234.747C161.755 235.496 162.562 236.092 163.469 236.492C164.376 236.891 165.361 237.084 166.351 237.057H286.825C288.99 236.999 291.067 236.184 292.694 234.753C294.32 233.322 295.394 231.366 295.727 229.225L313.07 100.946L315.838 59.2186Z" fill="black"/>
<path d="M282.534 237.065H162.061C161.071 237.091 160.087 236.897 159.181 236.497C158.274 236.097 157.468 235.501 156.82 234.752C156.171 234.003 155.697 233.12 155.431 232.166C155.166 231.211 155.115 230.21 155.282 229.233L172.626 100.946H308.78L291.437 229.225C291.106 231.367 290.033 233.325 288.406 234.758C286.779 236.191 284.701 237.007 282.534 237.065V237.065Z" fill="#157133"/>
<path d="M205.955 48.3234H188.011V49.1936H205.955V48.3234Z" fill="#407BFF"/>
<path d="M179.527 50.1247L179.161 49.3328C180.602 48.6689 182.169 48.3246 183.756 48.3234V49.1936C182.295 49.1946 180.852 49.5123 179.527 50.1247V50.1247Z" fill="#157133"/>
<path d="M304.229 51.3431H183.756C181.637 51.3732 179.606 52.1926 178.059 53.641C176.512 55.0895 175.562 57.0628 175.393 59.175L172.626 100.946H308.78L311.539 59.2186C311.626 58.2101 311.502 57.1945 311.173 56.2372C310.844 55.2798 310.319 54.4019 309.63 53.66C308.942 52.9181 308.105 52.3287 307.175 51.9296C306.245 51.5306 305.241 51.3308 304.229 51.3431V51.3431Z" fill="#157133"/>
<path opacity="0.9" d="M179.352 90.7292L181.284 61.5507C181.373 60.4384 181.873 59.3991 182.688 58.6363C183.502 57.8734 184.572 57.4418 185.688 57.4258H301.488C302.02 57.418 302.547 57.5214 303.036 57.7296C303.526 57.9377 303.966 58.2459 304.329 58.6344C304.692 59.0229 304.97 59.483 305.144 59.9853C305.319 60.4875 305.387 61.0208 305.343 61.5507L303.411 90.7292C303.32 91.8408 302.819 92.8789 302.005 93.6413C301.191 94.4038 300.123 94.8361 299.008 94.854H183.207C182.676 94.8606 182.149 94.7562 181.661 94.5476C181.172 94.339 180.732 94.0308 180.369 93.6426C180.007 93.2544 179.729 92.7948 179.554 92.2931C179.379 91.7915 179.31 91.2588 179.352 90.7292V90.7292Z" fill="white"/>
<g opacity="0.4">
<path opacity="0.4" d="M293.142 62.2034L291.828 63.4304C291.796 63.4617 291.758 63.4863 291.716 63.5027C291.674 63.5191 291.63 63.5271 291.585 63.5261H284.623C284.574 63.5273 284.525 63.5178 284.48 63.4982C284.435 63.4787 284.395 63.4496 284.362 63.413L283.231 62.1947C283.183 62.1439 283.152 62.0803 283.14 62.0117C283.128 61.9431 283.136 61.8726 283.164 61.8088C283.192 61.745 283.238 61.6906 283.296 61.6525C283.354 61.6144 283.422 61.5942 283.492 61.5942H292.916C292.987 61.595 293.055 61.6171 293.113 61.6577C293.17 61.6982 293.214 61.7551 293.239 61.8211C293.263 61.8871 293.267 61.9589 293.25 62.0272C293.233 62.0954 293.195 62.1569 293.142 62.2034V62.2034Z" fill="#2E353A"/>
<path opacity="0.4" d="M291.298 84.8204H281.873C281.801 84.8205 281.731 84.799 281.672 84.7587C281.613 84.7184 281.567 84.6612 281.541 84.5945C281.514 84.5279 281.509 84.4548 281.525 84.3849C281.54 84.315 281.577 84.2514 281.629 84.2026L282.935 82.9843C283.002 82.9241 283.088 82.8901 283.178 82.8885H290.14C290.19 82.8872 290.24 82.8975 290.285 82.9186C290.33 82.9398 290.37 82.9712 290.401 83.0104L291.541 84.2287C291.585 84.2787 291.614 84.34 291.625 84.4056C291.636 84.4713 291.629 84.5387 291.603 84.6003C291.578 84.6619 291.536 84.7151 291.482 84.754C291.428 84.7929 291.364 84.8159 291.298 84.8204V84.8204Z" fill="#2E353A"/>
<path opacity="0.4" d="M292.211 73.4467L291.541 74.082C291.474 74.1422 291.388 74.1762 291.298 74.1777H283.126C283.078 74.1766 283.03 74.1657 282.986 74.1457C282.942 74.1256 282.903 74.0968 282.87 74.061C282.837 74.0252 282.813 73.9831 282.797 73.9373C282.781 73.8916 282.775 73.8431 282.778 73.7948L282.865 72.5678C282.872 72.4777 282.912 72.3936 282.979 72.3322C283.045 72.2708 283.132 72.2368 283.222 72.2371H291.419C291.468 72.2365 291.517 72.2463 291.562 72.2658C291.607 72.2853 291.647 72.314 291.681 72.3502L292.237 72.9507C292.269 72.9848 292.293 73.0247 292.308 73.0683C292.324 73.1118 292.331 73.158 292.328 73.2042C292.326 73.2503 292.314 73.2956 292.294 73.3372C292.274 73.3789 292.246 73.4161 292.211 73.4467V73.4467Z" fill="#2E353A"/>
<path opacity="0.4" d="M293.325 74.1167L292.638 83.5412C292.631 83.6099 292.605 83.6754 292.562 83.7295C292.52 83.7837 292.462 83.8243 292.397 83.8464C292.331 83.8686 292.261 83.8712 292.194 83.8541C292.127 83.837 292.067 83.8008 292.02 83.75L290.897 82.5317C290.864 82.4958 290.838 82.4533 290.821 82.4068C290.805 82.3604 290.798 82.3111 290.802 82.2619L291.315 75.2567C291.316 75.2118 291.327 75.1677 291.347 75.1272C291.366 75.0868 291.394 75.0508 291.428 75.0217L292.733 73.8034C292.788 73.7547 292.856 73.7238 292.928 73.7149C293.001 73.7061 293.074 73.7196 293.139 73.7537C293.203 73.7879 293.256 73.841 293.289 73.9059C293.322 73.9708 293.335 74.0443 293.325 74.1167Z" fill="#2E353A"/>
<path opacity="0.4" d="M294.135 62.9344L293.447 72.385C293.442 72.4544 293.417 72.521 293.375 72.5764C293.333 72.6318 293.275 72.6737 293.21 72.6968C293.144 72.7199 293.073 72.7233 293.005 72.7066C292.938 72.6898 292.877 72.6537 292.829 72.6025L291.698 71.3755C291.667 71.3399 291.643 71.2985 291.628 71.2537C291.613 71.2089 291.607 71.1616 291.611 71.1145L292.116 64.1092C292.124 64.0198 292.164 63.9364 292.229 63.8742L293.534 62.6472C293.587 62.5978 293.653 62.5654 293.724 62.5543C293.795 62.5432 293.868 62.5539 293.933 62.585C293.998 62.616 294.052 62.666 294.088 62.7284C294.124 62.7908 294.14 62.8626 294.135 62.9344V62.9344Z" fill="#2E353A"/>
</g>
<path opacity="0.4" d="M278.053 88.7624C278.081 88.4375 278.228 88.1343 278.465 87.911C278.703 87.6878 279.015 87.5602 279.341 87.5528H294.135C294.307 87.5512 294.479 87.5853 294.638 87.6531C294.797 87.721 294.94 87.821 295.059 87.9468C295.177 88.0727 295.268 88.2217 295.326 88.3846C295.385 88.5474 295.408 88.7205 295.396 88.8929C295.368 89.2193 295.22 89.5237 294.981 89.7472C294.741 89.9706 294.427 90.0973 294.1 90.1025H279.341C279.165 90.1106 278.99 90.0811 278.826 90.0158C278.663 89.9506 278.515 89.8513 278.393 89.7244C278.271 89.5975 278.178 89.446 278.119 89.2801C278.06 89.1142 278.038 88.9377 278.053 88.7624Z" fill="#2E353A"/>
<path opacity="0.4" d="M259.552 88.7624C259.58 88.4375 259.727 88.1343 259.964 87.911C260.202 87.6878 260.514 87.5602 260.84 87.5528H275.634C275.806 87.5512 275.978 87.5853 276.137 87.6531C276.296 87.721 276.439 87.821 276.558 87.9468C276.676 88.0727 276.767 88.2217 276.825 88.3846C276.884 88.5474 276.907 88.7205 276.895 88.8929V88.8929C276.867 89.2193 276.719 89.5237 276.48 89.7472C276.24 89.9706 275.926 90.0973 275.599 90.1025H260.805C260.632 90.1056 260.46 90.0723 260.301 90.0049C260.142 89.9374 259.999 89.8373 259.881 89.711C259.762 89.5847 259.672 89.435 259.616 89.2716C259.559 89.1082 259.537 88.9347 259.552 88.7624V88.7624Z" fill="#2E353A"/>
<path opacity="0.4" d="M241.051 88.7623C241.079 88.4374 241.226 88.1342 241.463 87.911C241.701 87.6877 242.013 87.5601 242.339 87.5527H257.133C257.305 87.5523 257.475 87.5874 257.633 87.6557C257.791 87.7241 257.933 87.8242 258.051 87.95C258.169 88.0757 258.259 88.2243 258.317 88.3866C258.374 88.5488 258.398 88.7211 258.386 88.8929V88.8929C258.36 89.22 258.212 89.5255 257.972 89.7494C257.732 89.9732 257.417 90.0992 257.089 90.1025H242.295C242.123 90.1043 241.953 90.0701 241.794 90.0021C241.636 89.9342 241.494 89.8339 241.377 89.7077C241.26 89.5815 241.17 89.4322 241.114 89.2694C241.058 89.1066 241.036 88.9339 241.051 88.7623V88.7623Z" fill="#2E353A"/>
<path opacity="0.4" d="M222.55 88.7623C222.578 88.4374 222.725 88.1342 222.963 87.911C223.2 87.6877 223.512 87.5601 223.838 87.5527H238.632C238.804 87.5523 238.974 87.5874 239.132 87.6557C239.29 87.7241 239.433 87.8242 239.55 87.95C239.668 88.0757 239.758 88.2243 239.816 88.3866C239.873 88.5488 239.897 88.7211 239.885 88.8929V88.8929C239.859 89.22 239.711 89.5255 239.471 89.7494C239.232 89.9732 238.917 90.0992 238.588 90.1025H223.795C223.622 90.1043 223.452 90.0701 223.294 90.0021C223.135 89.9342 222.993 89.8339 222.876 89.7077C222.759 89.5815 222.669 89.4322 222.613 89.2694C222.557 89.1066 222.536 88.9339 222.55 88.7623V88.7623Z" fill="#2E353A"/>
<path opacity="0.1" d="M181.693 160.443L187.141 120.177C187.344 118.858 188.005 117.651 189.006 116.769C190.008 115.886 191.288 115.383 192.623 115.348H232.888C233.499 115.331 234.106 115.45 234.665 115.697C235.224 115.943 235.722 116.311 236.121 116.773C236.521 117.235 236.813 117.78 236.976 118.369C237.14 118.958 237.17 119.575 237.065 120.177L231.618 160.443C231.416 161.762 230.758 162.968 229.757 163.851C228.757 164.733 227.478 165.237 226.144 165.272H185.87C185.26 165.289 184.653 165.17 184.094 164.923C183.534 164.677 183.037 164.309 182.637 163.847C182.238 163.385 181.946 162.84 181.782 162.251C181.619 161.662 181.589 161.045 181.693 160.443V160.443Z" fill="#263238"/>
<path opacity="0.1" d="M239.058 160.442L244.532 120.177C244.735 118.858 245.396 117.651 246.398 116.769C247.399 115.886 248.679 115.383 250.014 115.348H290.279C290.891 115.329 291.498 115.447 292.058 115.693C292.618 115.939 293.116 116.307 293.516 116.769C293.916 117.232 294.208 117.778 294.371 118.367C294.534 118.957 294.563 119.575 294.456 120.177L289.018 160.442C288.813 161.761 288.152 162.967 287.15 163.849C286.149 164.732 284.87 165.235 283.535 165.272H243.227C242.616 165.289 242.009 165.17 241.451 164.924C240.892 164.677 240.395 164.309 239.996 163.847C239.597 163.385 239.305 162.839 239.143 162.25C238.981 161.662 238.952 161.044 239.058 160.442V160.442Z" fill="#263238"/>
<path opacity="0.1" d="M173.94 217.807L179.387 177.525C179.592 176.206 180.253 175 181.255 174.118C182.256 173.236 183.535 172.732 184.87 172.695H225.135C225.746 172.678 226.352 172.798 226.912 173.044C227.471 173.29 227.968 173.658 228.368 174.12C228.767 174.582 229.06 175.128 229.223 175.716C229.386 176.305 229.416 176.923 229.312 177.525L223.864 217.799C223.661 219.116 223.002 220.32 222.001 221.201C221.001 222.082 219.723 222.584 218.391 222.62H178.117C177.508 222.636 176.903 222.517 176.345 222.272C175.787 222.026 175.291 221.66 174.891 221.2C174.492 220.74 174.2 220.197 174.035 219.611C173.87 219.024 173.838 218.408 173.94 217.807V217.807Z" fill="#263238"/>
<path opacity="0.1" d="M231.305 217.807L236.743 177.525C236.948 176.206 237.609 175 238.611 174.118C239.612 173.236 240.892 172.732 242.226 172.695H282.491C283.102 172.678 283.709 172.798 284.268 173.044C284.827 173.29 285.324 173.658 285.724 174.12C286.124 174.582 286.416 175.128 286.579 175.716C286.742 176.305 286.773 176.923 286.668 177.525L281.229 217.799C281.022 219.116 280.361 220.32 279.359 221.2C278.358 222.081 277.08 222.583 275.747 222.62H235.473C234.864 222.636 234.259 222.517 233.702 222.272C233.145 222.026 232.649 221.66 232.25 221.2C231.851 220.74 231.56 220.197 231.396 219.61C231.233 219.023 231.201 218.408 231.305 217.807V217.807Z" fill="#263238"/>
<path d="M179.013 160.443L184.487 120.177C184.69 118.858 185.35 117.651 186.352 116.769C187.354 115.886 188.634 115.383 189.969 115.348H230.234C230.845 115.331 231.452 115.45 232.011 115.697C232.57 115.943 233.067 116.311 233.467 116.773C233.867 117.235 234.159 117.78 234.322 118.369C234.485 118.958 234.516 119.575 234.411 120.177L228.964 160.443C228.762 161.762 228.104 162.968 227.103 163.851C226.103 164.733 224.824 165.237 223.49 165.272H183.19C182.579 165.289 181.972 165.17 181.413 164.923C180.854 164.677 180.357 164.309 179.957 163.847C179.557 163.385 179.265 162.84 179.102 162.251C178.939 161.662 178.908 161.045 179.013 160.443V160.443Z" fill="#263238"/>
<path opacity="0.2" d="M179.013 160.443L184.487 120.177C184.69 118.858 185.35 117.651 186.352 116.769C187.354 115.886 188.634 115.383 189.969 115.348H230.234C230.845 115.331 231.452 115.45 232.011 115.697C232.57 115.943 233.067 116.311 233.467 116.773C233.867 117.235 234.159 117.78 234.322 118.369C234.485 118.958 234.516 119.575 234.411 120.177L228.964 160.443C228.762 161.762 228.104 162.968 227.103 163.851C226.103 164.733 224.824 165.237 223.49 165.272H183.19C182.579 165.289 181.972 165.17 181.413 164.923C180.854 164.677 180.357 164.309 179.957 163.847C179.557 163.385 179.265 162.84 179.102 162.251C178.939 161.662 178.908 161.045 179.013 160.443V160.443Z" fill="white"/>
<path d="M236.378 160.442L241.817 120.177C242.02 118.858 242.681 117.651 243.682 116.769C244.684 115.886 245.964 115.383 247.299 115.348H287.564C288.176 115.329 288.783 115.447 289.343 115.693C289.903 115.939 290.401 116.307 290.801 116.769C291.201 117.232 291.493 117.778 291.656 118.367C291.819 118.957 291.848 119.575 291.741 120.177L286.303 160.442C286.098 161.761 285.437 162.967 284.435 163.849C283.434 164.732 282.155 165.235 280.82 165.272H240.546C239.936 165.289 239.329 165.17 238.77 164.924C238.212 164.677 237.715 164.309 237.316 163.847C236.916 163.385 236.625 162.839 236.463 162.25C236.301 161.662 236.272 161.044 236.378 160.442Z" fill="#2E353A"/>
<path opacity="0.2" d="M236.378 160.442L241.817 120.177C242.02 118.858 242.681 117.651 243.682 116.769C244.684 115.886 245.964 115.383 247.299 115.348H287.564C288.176 115.329 288.783 115.447 289.343 115.693C289.903 115.939 290.401 116.307 290.801 116.769C291.201 117.232 291.493 117.778 291.656 118.367C291.819 118.957 291.848 119.575 291.741 120.177L286.303 160.442C286.098 161.761 285.437 162.967 284.435 163.849C283.434 164.732 282.155 165.235 280.82 165.272H240.546C239.936 165.289 239.329 165.17 238.77 164.924C238.212 164.677 237.715 164.309 237.316 163.847C236.916 163.385 236.625 162.839 236.463 162.25C236.301 161.662 236.272 161.044 236.378 160.442Z" fill="white"/>
<path d="M171.259 217.807L176.707 177.525C176.912 176.206 177.573 175 178.574 174.118C179.576 173.236 180.855 172.732 182.189 172.695H222.454C223.065 172.678 223.672 172.798 224.231 173.044C224.79 173.29 225.288 173.658 225.687 174.12C226.087 174.582 226.379 175.128 226.542 175.716C226.706 176.305 226.736 176.923 226.631 177.525L221.184 217.799C220.981 219.116 220.321 220.32 219.321 221.201C218.321 222.082 217.043 222.584 215.71 222.62H175.436C174.827 222.636 174.222 222.517 173.665 222.272C173.107 222.026 172.611 221.66 172.211 221.2C171.812 220.74 171.519 220.197 171.355 219.611C171.19 219.024 171.158 218.408 171.259 217.807V217.807Z" fill="#2E353A"/>
<path opacity="0.2" d="M171.259 217.807L176.707 177.525C176.912 176.206 177.573 175 178.574 174.118C179.576 173.236 180.855 172.732 182.189 172.695H222.454C223.065 172.678 223.672 172.798 224.231 173.044C224.79 173.29 225.288 173.658 225.687 174.12C226.087 174.582 226.379 175.128 226.542 175.716C226.706 176.305 226.736 176.923 226.631 177.525L221.184 217.799C220.981 219.116 220.321 220.32 219.321 221.201C218.321 222.082 217.043 222.584 215.71 222.62H175.436C174.827 222.636 174.222 222.517 173.665 222.272C173.107 222.026 172.611 221.66 172.211 221.2C171.812 220.74 171.519 220.197 171.355 219.611C171.19 219.024 171.158 218.408 171.259 217.807V217.807Z" fill="white"/>
<path d="M228.624 217.807L234.089 177.525C234.294 176.206 234.955 175 235.957 174.118C236.958 173.236 238.237 172.732 239.572 172.695H279.837C280.448 172.678 281.054 172.798 281.614 173.044C282.173 173.29 282.67 173.658 283.07 174.12C283.469 174.582 283.762 175.128 283.925 175.716C284.088 176.305 284.118 176.923 284.014 177.525L278.575 217.799C278.368 219.116 277.707 220.32 276.705 221.2C275.704 222.081 274.426 222.583 273.093 222.62H232.793C232.184 222.636 231.579 222.517 231.022 222.272C230.464 222.026 229.968 221.66 229.57 221.2C229.171 220.74 228.879 220.197 228.716 219.61C228.552 219.023 228.521 218.408 228.624 217.807Z" fill="#2E353A"/>
<path opacity="0.2" d="M228.624 217.807L234.089 177.525C234.294 176.206 234.955 175 235.957 174.118C236.958 173.236 238.237 172.732 239.572 172.695H279.837C280.448 172.678 281.054 172.798 281.614 173.044C282.173 173.29 282.67 173.658 283.07 174.12C283.469 174.582 283.762 175.128 283.925 175.716C284.088 176.305 284.118 176.923 284.014 177.525L278.575 217.799C278.368 219.116 277.707 220.32 276.705 221.2C275.704 222.081 274.426 222.583 273.093 222.62H232.793C232.184 222.636 231.579 222.517 231.022 222.272C230.464 222.026 229.968 221.66 229.57 221.2C229.171 220.74 228.879 220.197 228.716 219.61C228.552 219.023 228.521 218.408 228.624 217.807Z" fill="white"/>
<path d="M204.432 157.066C203.822 157.08 203.217 156.958 202.659 156.711C202.102 156.464 201.606 156.096 201.207 155.635C200.808 155.173 200.515 154.629 200.351 154.042C200.186 153.454 200.154 152.838 200.255 152.236L203.484 128.392C203.69 127.073 204.351 125.868 205.352 124.984C206.353 124.101 207.631 123.595 208.966 123.554V123.554C209.577 123.539 210.184 123.659 210.743 123.906C211.302 124.154 211.8 124.522 212.199 124.985C212.599 125.448 212.891 125.993 213.054 126.583C213.217 127.172 213.248 127.79 213.143 128.392L209.923 152.236C209.715 153.555 209.052 154.76 208.049 155.642C207.046 156.524 205.767 157.028 204.432 157.066V157.066Z" fill="#FFEA17"/>
<path d="M189.943 140.314C190.151 138.994 190.814 137.789 191.816 136.905C192.819 136.022 194.098 135.516 195.434 135.476H219.296C219.906 135.462 220.513 135.583 221.071 135.831C221.629 136.079 222.126 136.448 222.525 136.91C222.924 137.373 223.216 137.918 223.38 138.506C223.544 139.095 223.575 139.712 223.473 140.314V140.314C223.264 141.632 222.603 142.835 221.602 143.717C220.601 144.599 219.324 145.104 217.99 145.144H194.146C193.534 145.162 192.926 145.043 192.365 144.797C191.804 144.552 191.305 144.185 190.903 143.723C190.501 143.261 190.206 142.716 190.04 142.126C189.874 141.537 189.841 140.918 189.943 140.314V140.314Z" fill="#FFEA17"/>
<path d="M185.496 209.514C183.869 207.635 184.287 204.563 186.419 202.683L205.564 185.818C207.696 183.939 210.785 183.939 212.395 185.818C214.022 187.698 213.604 190.778 211.472 192.658L192.327 209.514C190.195 211.394 187.097 211.394 185.496 209.514Z" fill="#FFEA17"/>
<path d="M188.699 185.818C190.831 183.939 193.92 183.939 195.539 185.818L210.115 202.683C211.742 204.563 211.324 207.635 209.192 209.514C207.06 211.394 203.971 211.394 202.361 209.514L187.776 192.658C186.149 190.778 186.567 187.698 188.699 185.818Z" fill="#FFEA17"/>
<path d="M247.299 140.314C247.508 138.994 248.17 137.789 249.173 136.905C250.175 136.022 251.455 135.516 252.79 135.476H276.634C277.246 135.461 277.853 135.581 278.412 135.828C278.971 136.076 279.468 136.444 279.868 136.907C280.267 137.37 280.559 137.915 280.722 138.505C280.885 139.094 280.916 139.712 280.811 140.314V140.314C280.603 141.632 279.942 142.835 278.941 143.717C277.94 144.599 276.662 145.104 275.329 145.144H251.494C250.882 145.16 250.275 145.041 249.715 144.795C249.156 144.548 248.657 144.181 248.256 143.719C247.855 143.258 247.562 142.713 247.396 142.124C247.231 141.535 247.198 140.917 247.299 140.314V140.314Z" fill="#FDE801"/>
<path d="M240.564 190.152C240.772 188.833 241.435 187.628 242.438 186.746C243.441 185.864 244.72 185.36 246.055 185.322H269.899C270.509 185.308 271.114 185.43 271.672 185.677C272.229 185.925 272.725 186.292 273.124 186.754C273.523 187.215 273.816 187.759 273.98 188.346C274.145 188.934 274.177 189.55 274.076 190.152V190.152C273.87 191.471 273.209 192.677 272.208 193.56C271.207 194.444 269.928 194.949 268.594 194.99H244.741C244.13 195.004 243.524 194.883 242.966 194.635C242.407 194.387 241.911 194.018 241.511 193.556C241.112 193.094 240.82 192.548 240.656 191.96C240.493 191.371 240.461 190.754 240.564 190.152Z" fill="#FDE801"/>
<path d="M238.536 205.181C238.744 203.863 239.406 202.659 240.407 201.778C241.408 200.896 242.685 200.391 244.019 200.351H267.863C268.473 200.336 269.079 200.456 269.638 200.703C270.197 200.95 270.694 201.317 271.094 201.779C271.494 202.241 271.787 202.785 271.952 203.373C272.117 203.961 272.15 204.578 272.048 205.181V205.181C271.84 206.5 271.177 207.706 270.175 208.59C269.172 209.473 267.893 209.979 266.557 210.019H242.713C242.102 210.034 241.495 209.914 240.936 209.667C240.377 209.419 239.88 209.051 239.48 208.588C239.08 208.125 238.789 207.579 238.625 206.99C238.462 206.401 238.432 205.783 238.536 205.181V205.181Z" fill="#FDE801"/>
<path d="M116.053 108.516C114.486 111.423 112.876 114.556 111.406 117.619C109.935 120.682 108.517 123.806 107.298 126.93C106.976 127.713 106.715 128.497 106.428 129.28C106.275 129.681 106.187 130.104 106.167 130.533C106.132 131.768 106.36 132.996 106.837 134.136C108.083 137.064 109.738 139.801 111.754 142.264L108.786 145.744C107.959 145.21 107.163 144.629 106.402 144.004C105.638 143.405 104.908 142.763 104.218 142.081C102.752 140.675 101.468 139.09 100.397 137.364C99.1507 135.384 98.371 133.146 98.1174 130.82C97.9929 129.48 98.1018 128.129 98.4394 126.826C98.683 125.956 98.9093 124.998 99.1878 124.102C100.254 120.544 101.542 117.057 103.043 113.659C103.791 111.98 104.557 110.318 105.401 108.682C106.245 107.046 107.055 105.462 108.064 103.791L116.053 108.516Z" fill="#FF8B7B"/>
<path d="M110.518 141.263L114.869 142.412L111.632 148.703C111.632 148.703 108.395 147.467 107.594 144.622L110.518 141.263Z" fill="#FF8B7B"/>
<path d="M120.874 144.396L116.975 149.33L111.641 148.703L114.878 142.412L120.874 144.396Z" fill="#FF8B7B"/>
<path d="M136.572 75.3263C136.668 75.8136 137.007 76.153 137.321 76.0921C137.634 76.0312 137.817 75.5787 137.712 75.1001C137.608 74.6214 137.277 74.2298 136.964 74.3343C136.651 74.4387 136.468 74.839 136.572 75.3263Z" fill="#263238"/>
<path d="M136.964 76.1617C137.84 77.5248 138.9 78.7606 140.114 79.8341C139.828 80.1312 139.48 80.3627 139.096 80.513C138.711 80.6632 138.299 80.7284 137.886 80.7043L136.964 76.1617Z" fill="#FF5652"/>
<path d="M137.617 79.4511C136.198 79.4511 134.788 77.9021 134.362 75.7788C134.129 74.7426 134.199 73.6613 134.562 72.6634C134.663 72.2524 134.879 71.8786 135.184 71.5853C135.489 71.292 135.871 71.0914 136.286 71.0066C136.701 70.9219 137.131 70.9565 137.527 71.1065C137.922 71.2565 138.267 71.5158 138.522 71.8541C139.228 72.6438 139.712 73.6073 139.923 74.6457C140.134 75.6841 140.065 76.76 139.723 77.7629C139.598 78.1641 139.372 78.5266 139.067 78.816C138.763 79.1054 138.389 79.3121 137.982 79.4163C137.862 79.4397 137.739 79.4514 137.617 79.4511ZM136.677 71.1927C136.561 71.1799 136.444 71.1799 136.329 71.1927C135.961 71.2921 135.624 71.4832 135.35 71.748C135.076 72.0128 134.874 72.3427 134.762 72.7069C134.415 73.6663 134.349 74.7047 134.571 75.7005C135.015 77.9021 136.529 79.4598 137.956 79.1813C138.325 79.0842 138.663 78.8939 138.937 78.6288C139.211 78.3637 139.413 78.0325 139.522 77.6672C139.85 76.7043 139.916 75.6719 139.714 74.6752C139.512 73.6785 139.05 72.7531 138.374 71.9933C138.158 71.754 137.897 71.5599 137.606 71.4225C137.314 71.285 136.999 71.2069 136.677 71.1927V71.1927Z" fill="black"/>
<path d="M182.433 125.486L188.011 124.302L188.733 131.873C188.733 131.873 183.912 132.796 181.606 128.984L182.433 125.486Z" fill="#FF8B7B"/>
<path d="M193.285 125.999L192.928 131.525L188.733 131.873L188.011 124.302L193.285 125.999Z" fill="#FF8B7B"/>
<path d="M134.249 73.0028C134.213 73.003 134.178 72.9961 134.145 72.9827C134.113 72.9693 134.083 72.9495 134.057 72.9245C134.029 72.8984 134.007 72.8668 133.991 72.8316C133.976 72.7964 133.968 72.7584 133.968 72.72C133.968 72.6815 133.976 72.6435 133.991 72.6084C134.007 72.5732 134.029 72.5415 134.057 72.5155C134.362 72.171 134.744 71.9043 135.173 71.7378C135.601 71.5713 136.063 71.5097 136.52 71.5582C136.558 71.5635 136.595 71.5763 136.627 71.5959C136.66 71.6155 136.689 71.6415 136.712 71.6723C136.734 71.7031 136.751 71.7381 136.76 71.7753C136.769 71.8125 136.77 71.8511 136.764 71.8889C136.749 71.9651 136.706 72.0328 136.643 72.0781C136.579 72.1234 136.501 72.1429 136.424 72.1326V72.1326C136.063 72.0969 135.698 72.1486 135.36 72.2834C135.022 72.4182 134.722 72.6321 134.484 72.9071C134.454 72.9385 134.417 72.9633 134.377 72.9798C134.336 72.9962 134.293 73.0041 134.249 73.0028V73.0028Z" fill="#263238"/>
<path d="M123.136 84.1329C124.006 88.6146 124.546 94.8192 121.396 97.8041C121.396 97.8041 122.614 102.347 130.968 102.347C140.123 102.347 135.371 98.361 135.371 98.361C131.569 97.1775 131.603 92.8525 132.474 89.3717L123.136 84.1329Z" fill="#FF8B7B"/>
<path d="M132.535 96.7163C134.588 95.2369 137.625 93.5052 138.261 95.3152C138.643 96.403 138.8 101.72 136.686 101.32C133.561 100.737 132.535 96.7163 132.535 96.7163Z" fill="#263238"/>
<path d="M119.699 100.798C118.881 99.649 118.916 96.0028 119.786 95.3589C121.187 94.3233 127.191 94.0796 135.284 95.9419C134.414 99.475 136.285 101.329 136.285 101.329L119.699 100.798Z" fill="#FEE90E"/>
<path d="M92.4957 307.397C92.7427 307.484 93.0045 307.521 93.2659 307.506C93.5274 307.491 93.7832 307.424 94.0186 307.31C94.1119 307.229 94.1759 307.119 94.2011 306.998C94.2262 306.877 94.211 306.751 94.1579 306.64C94.1337 306.545 94.0882 306.458 94.0248 306.384C93.9614 306.31 93.8819 306.252 93.7924 306.213C92.9222 305.813 91.0599 306.587 90.9816 306.622C90.9556 306.633 90.9334 306.651 90.9179 306.674C90.9024 306.697 90.8942 306.725 90.8945 306.753C90.8929 306.781 90.8994 306.809 90.9133 306.834C90.9272 306.859 90.9478 306.879 90.9729 306.892C91.463 307.109 91.973 307.278 92.4957 307.397V307.397ZM93.4965 306.413L93.6618 306.474C93.7151 306.496 93.763 306.529 93.8021 306.571C93.8412 306.613 93.8706 306.663 93.8881 306.718C93.9664 306.979 93.8881 307.066 93.8359 307.092C93.5052 307.371 92.2782 307.092 91.4254 306.77C92.0807 306.499 92.7882 306.377 93.4965 306.413V306.413Z" fill="black"/>
<path d="M91.0077 306.901H91.0773C91.7735 306.692 93.2529 305.639 93.2703 304.951C93.2709 304.842 93.2342 304.736 93.1661 304.65C93.098 304.565 93.0027 304.505 92.8961 304.481C92.7914 304.443 92.6796 304.427 92.5683 304.436C92.4571 304.445 92.3492 304.479 92.2521 304.534C91.4341 304.951 90.9207 306.64 90.9033 306.718C90.898 306.737 90.8965 306.757 90.899 306.776C90.9014 306.795 90.9076 306.814 90.9173 306.831C90.927 306.848 90.94 306.863 90.9555 306.875C90.9711 306.887 90.9888 306.896 91.0077 306.901V306.901ZM92.7481 304.734H92.8091C92.9918 304.795 92.9918 304.882 92.9918 304.925C92.9918 305.334 91.9998 306.161 91.2514 306.492C91.4379 305.812 91.8263 305.205 92.3652 304.751C92.4829 304.697 92.6172 304.691 92.7394 304.734H92.7481Z" fill="black"/>
<path d="M137.686 308.423C138.478 308.423 139.235 308.31 139.488 307.962C139.551 307.869 139.585 307.758 139.585 307.645C139.585 307.531 139.551 307.421 139.488 307.327C139.438 307.242 139.371 307.168 139.292 307.11C139.213 307.051 139.122 307.01 139.026 306.988C138.008 306.709 135.867 307.927 135.78 307.98C135.755 307.994 135.734 308.016 135.72 308.042C135.706 308.068 135.7 308.098 135.702 308.128C135.708 308.158 135.723 308.185 135.745 308.207C135.766 308.228 135.794 308.243 135.824 308.249C136.438 308.363 137.062 308.421 137.686 308.423V308.423ZM138.661 307.231C138.753 307.222 138.847 307.222 138.939 307.231C139.057 307.259 139.16 307.33 139.227 307.431C139.331 307.614 139.287 307.701 139.227 307.753C138.939 308.154 137.39 308.162 136.259 307.997C137.003 307.59 137.819 307.33 138.661 307.231V307.231Z" fill="#2E353A"/>
<path d="M135.841 308.25H135.902C136.642 307.919 138.104 306.596 137.991 305.9C137.991 305.735 137.852 305.534 137.451 305.5C137.307 305.483 137.161 305.496 137.022 305.538C136.882 305.58 136.753 305.65 136.642 305.743C136.09 306.412 135.758 307.236 135.693 308.102C135.692 308.122 135.695 308.142 135.702 308.161C135.709 308.18 135.72 308.197 135.734 308.212C135.747 308.227 135.764 308.238 135.783 308.246C135.801 308.254 135.821 308.258 135.841 308.258V308.25ZM137.33 305.769H137.417C137.678 305.769 137.695 305.891 137.704 305.926C137.773 306.344 136.773 307.388 136.024 307.841C136.091 307.142 136.374 306.482 136.833 305.952C136.97 305.831 137.147 305.765 137.33 305.769V305.769Z" fill="#2E353A"/>
<path d="M129.106 308.11H135.232L135.841 293.934H129.715L129.106 308.11Z" fill="#FF8B7B"/>
<path d="M84.1851 305.273L90.1635 306.57L96.1767 293.369L90.1896 292.072L84.1851 305.273Z" fill="#FF8B7B"/>
<path d="M90.7378 305.97L84.0197 304.516C83.901 304.491 83.7771 304.506 83.6681 304.56C83.5591 304.614 83.4715 304.702 83.4193 304.812L81.0871 309.877C81.025 309.999 80.9929 310.135 80.9933 310.273C80.9937 310.41 81.0267 310.545 81.0895 310.668C81.1523 310.79 81.2432 310.896 81.3547 310.976C81.4663 311.056 81.5952 311.109 81.7311 311.13C84.0894 311.591 85.2642 311.704 88.2142 312.34C90.033 312.74 94.1404 313.741 96.6466 314.28C99.1529 314.82 100.023 312.409 99.0485 311.965C94.6973 309.955 92.8177 308.189 91.6342 306.544C91.4164 306.248 91.0972 306.044 90.7378 305.97V305.97Z" fill="#263238"/>
<path d="M135.189 307.397H128.505C128.384 307.396 128.265 307.437 128.17 307.513C128.075 307.589 128.009 307.696 127.983 307.814L126.774 313.279C126.738 313.411 126.734 313.549 126.762 313.682C126.789 313.816 126.848 313.941 126.932 314.047C127.017 314.154 127.125 314.239 127.249 314.296C127.373 314.353 127.508 314.381 127.644 314.376C130.054 314.332 133.544 314.193 136.572 314.193C140.114 314.193 143.177 314.385 147.337 314.385C149.843 314.385 150.548 311.844 149.495 311.609C144.7 310.564 140.793 310.451 136.659 307.901C136.226 307.6 135.716 307.425 135.189 307.397V307.397Z" fill="#263238"/>
<path d="M110.448 99.2051C104.714 100.519 100.006 115.165 100.006 115.165L111.527 123.945C114.505 120.767 116.604 116.868 117.619 112.633C119.586 104.94 116.314 97.8476 110.448 99.2051Z" fill="#005C05"/>
<path opacity="0.4" d="M110.448 99.2051C104.714 100.519 100.006 115.165 100.006 115.165L111.527 123.945C114.505 120.767 116.604 116.868 117.619 112.633C119.586 104.94 116.314 97.8476 110.448 99.2051Z" fill="#005C05"/>
<path d="M144.848 106.167L154.516 115.061C156.126 116.54 157.736 118.011 159.355 119.455C160.973 120.9 162.592 122.344 164.15 123.598L162.801 122.875C163.549 123.154 164.332 123.423 165.159 123.641C165.986 123.859 166.839 124.041 167.718 124.215C169.526 124.543 171.35 124.778 173.183 124.92C175.054 125.077 176.968 125.181 178.891 125.234C180.814 125.286 182.807 125.329 184.696 125.338L185.566 129.846C183.578 130.566 181.543 131.148 179.474 131.586C177.402 132.034 175.303 132.354 173.191 132.543C171.024 132.741 168.845 132.773 166.673 132.639C164.365 132.506 162.079 132.112 159.859 131.464L159.207 131.273L158.519 130.742C156.605 129.271 154.908 127.835 153.202 126.391C151.497 124.946 149.843 123.45 148.19 121.961C144.9 118.968 141.637 115.992 138.443 112.903L144.848 106.167Z" fill="#FF8B7B"/>
<path opacity="0.2" d="M115.365 109.961C112.25 113.042 111.232 118.663 111.014 123.537L111.527 123.928C114.502 120.747 116.601 116.85 117.619 112.615C117.732 112.163 117.837 111.745 117.915 111.249L115.365 109.961Z" fill="black"/>
<path d="M146.702 105.297C147.955 111.91 148.738 125.494 145.101 152.384H112.363C112.137 147.363 115.295 122.84 110.448 99.1616C114.07 98.4662 117.732 98.004 121.413 97.7779C126.051 97.512 130.699 97.512 135.337 97.7779C136.868 97.9172 138.374 98.1434 139.688 98.3784C141.419 98.6878 143.016 99.5144 144.268 100.749C145.52 101.984 146.369 103.57 146.702 105.297Z" fill="#237F52"/>
<path opacity="0.4" d="M146.702 105.297C147.955 111.91 148.738 125.494 145.101 152.384H112.363C112.137 147.363 115.295 122.84 110.448 99.1616C114.07 98.4662 117.732 98.004 121.413 97.7779C126.051 97.512 130.699 97.512 135.337 97.7779C136.868 97.9172 138.374 98.1434 139.688 98.3784C141.419 98.6878 143.016 99.5144 144.268 100.749C145.52 101.984 146.369 103.57 146.702 105.297Z" fill="#005C05"/>
<path opacity="0.2" d="M141.689 115.104L147.607 113.686C147.79 117.271 147.807 121.709 147.537 127.2C144.813 124.102 141.341 119.264 141.689 115.104Z" fill="black"/>
<path opacity="0.2" d="M135.841 293.934L135.528 301.244H129.402L129.715 293.934H135.841Z" fill="black"/>
<path opacity="0.2" d="M90.1897 292.072L96.1768 293.369L93.0701 300.174L87.0917 298.877L90.1897 292.072Z" fill="black"/>
<path d="M120.221 77.5888C121.796 83.454 122.423 86.9697 126.043 89.4064C131.49 93.0787 138.226 88.8668 138.478 82.6447C138.67 77.0492 136.068 68.3905 129.776 67.207C128.388 66.9395 126.954 67.0312 125.612 67.4735C124.269 67.9158 123.062 68.694 122.104 69.7341C121.147 70.7743 120.471 72.042 120.142 73.4167C119.812 74.7914 119.839 76.2275 120.221 77.5888Z" fill="#FF8B7B"/>
<path d="M133.535 78.0327C136.285 77.6411 135.493 74.4648 134.466 72.9071C134.466 72.9071 140.558 65.5538 133.535 62.5863C126.513 59.6189 128.21 64.2484 128.21 64.2484C128.21 64.2484 122.701 60.1149 117.915 63.4565C113.129 66.7982 117.262 68.2427 117.262 68.2427C117.262 68.2427 108.56 70.8012 112.041 75.2045C115.522 79.6078 119.116 79.164 119.116 79.164C119.116 79.164 111.902 82.0096 117.375 85.2033C122.849 88.397 124.903 88.5363 124.903 88.5363C126.366 88.7183 127.846 88.377 129.082 87.5728C130.318 86.7686 131.23 85.5532 131.656 84.1417L133.535 78.0327Z" fill="#263238"/>
<path d="M131.168 78.0501C131.286 79.5593 131.898 80.9876 132.909 82.114C134.24 83.5847 135.633 82.6623 135.876 80.8783C136.085 79.2597 135.65 76.5272 134.014 75.744C132.378 74.9608 131.064 76.2314 131.168 78.0501Z" fill="#FF8B7B"/>
<path d="M133.492 152.41C133.492 152.41 126.53 199.185 122.727 216.711C118.55 235.899 96.1593 299.382 96.1593 299.382L85.2032 297.006C85.2032 297.006 100.867 245.263 104.348 218.434C107.046 197.827 112.345 152.393 112.345 152.393L133.492 152.41Z" fill="#263238"/>
<path d="M98.7874 295.736L96.7424 299.704L84.4114 297.032L85.4556 293.325L98.7874 295.736Z" fill="#F7F0A6"/>
<path opacity="0.3" d="M129.097 169.075C121.065 170.65 121.918 200.603 122.884 216.015C125.199 205.12 128.592 184.165 130.907 169.293C130.346 169.016 129.708 168.939 129.097 169.075V169.075Z" fill="black"/>
<path d="M145.101 152.41C145.101 152.41 145.971 198.175 145.283 216.807C144.587 236.221 137.808 299.791 137.808 299.791H127.435C127.435 299.791 127.061 237.353 126.565 218.286C126.095 197.54 123.571 152.41 123.571 152.41H145.101Z" fill="#263238"/>
<path d="M139.801 295.701C139.853 295.701 139.218 300 139.218 300H126.6L126.26 296.162L139.801 295.701Z" fill="#F7F0A6"/>
<path d="M133.875 107.333C130.933 115.243 148.181 124.563 148.181 124.563L155.648 114.991C155.648 114.991 150.661 105.079 144.552 100.606C136.999 95.0628 136.102 101.311 133.875 107.333Z" fill="#005C05"/>
<path opacity="0.4" d="M133.875 107.333C130.933 115.243 148.181 124.563 148.181 124.563L155.648 114.991C155.648 114.991 150.661 105.079 144.552 100.606C136.999 95.0628 136.102 101.311 133.875 107.333Z" fill="#005C05"/>
<path d="M183.408 127.879C184.59 127.879 185.548 127.158 185.548 126.269C185.548 125.38 184.59 124.659 183.408 124.659C182.225 124.659 181.267 125.38 181.267 126.269C181.267 127.158 182.225 127.879 183.408 127.879Z" fill="#FFF58B"/>
<path d="M182.581 131.403C182.516 131.404 182.452 131.39 182.394 131.363C182.335 131.336 182.283 131.296 182.242 131.247C182.168 131.159 182.133 131.045 182.143 130.931C182.152 130.817 182.207 130.712 182.294 130.638C182.346 130.594 183.46 129.576 182.981 127.209C182.97 127.153 182.97 127.096 182.981 127.041C182.992 126.985 183.014 126.932 183.045 126.885C183.077 126.838 183.117 126.798 183.165 126.767C183.212 126.736 183.265 126.715 183.321 126.704C183.377 126.693 183.434 126.692 183.49 126.703C183.547 126.714 183.6 126.736 183.648 126.767C183.695 126.799 183.736 126.84 183.768 126.887C183.8 126.934 183.823 126.988 183.834 127.044C184.426 129.941 182.92 131.247 182.859 131.299C182.781 131.365 182.683 131.402 182.581 131.403V131.403Z" fill="#F7F0A6"/>
<path opacity="0.4" d="M185.148 126.182C185.148 126.843 184.374 127.374 183.408 127.374C182.442 127.374 181.667 126.843 181.667 126.182C181.667 125.521 182.442 124.998 183.408 124.998C184.374 124.998 185.148 125.494 185.148 126.182Z" fill="#2E353A"/>
<path d="M136.572 97.8738C132.569 100.737 125.634 111.797 124.389 118.333C124.381 118.376 124.359 118.415 124.328 118.446C124.297 118.477 124.257 118.498 124.213 118.505C124.17 118.513 124.125 118.507 124.085 118.489C124.045 118.47 124.012 118.44 123.989 118.402C120.21 112.281 117.968 105.336 117.454 98.161C117.451 98.1324 117.444 98.1045 117.431 98.0789C117.418 98.0533 117.4 98.0306 117.378 98.012C117.356 97.9934 117.331 97.9793 117.303 97.9705C117.276 97.9617 117.247 97.9584 117.219 97.9608C116.244 98.0259 115.274 98.145 114.312 98.3176C114.265 98.3309 114.223 98.3593 114.193 98.3986C114.163 98.4379 114.147 98.4858 114.147 98.5351C114.619 107.503 117.813 116.115 123.302 123.223C123.312 123.245 123.318 123.269 123.318 123.293C123.318 123.317 123.312 123.341 123.302 123.363C122.771 133.153 123.476 150.653 123.563 152.732C123.565 152.789 123.589 152.842 123.629 152.881C123.67 152.92 123.724 152.941 123.78 152.941H126.391C126.42 152.941 126.449 152.935 126.476 152.924C126.503 152.913 126.528 152.896 126.548 152.875C126.568 152.853 126.584 152.828 126.594 152.801C126.605 152.774 126.61 152.744 126.608 152.715C126.487 150.714 125.669 135.511 126.608 123.041C128.079 113.764 136.877 101.224 139.966 98.744C139.999 98.7193 140.025 98.6852 140.038 98.6462C140.052 98.6072 140.054 98.5649 140.044 98.5249C140.033 98.4848 140.012 98.4486 139.981 98.421C139.95 98.3934 139.912 98.3756 139.871 98.3698C138.565 98.0826 137.068 97.8999 136.712 97.8651C136.666 97.8526 136.617 97.8557 136.572 97.8738Z" fill="#F7F0A6"/>
</svg>
