<svg xmlns="http://www.w3.org/2000/svg" width="32" height="32" viewBox="0 0 32 32"><path style="line-height:normal;text-indent:0;text-align:start;text-decoration-line:none;text-decoration-style:solid;text-decoration-color:#000;text-transform:none;block-progression:tb;white-space:normal;isolation:auto;mix-blend-mode:normal;solid-color:#000;solid-opacity:1" d="M 22.595703 1.0019531 C 21.378517 0.9699 20.191305 1.5755063 19.521484 2.6601562 C 19.003646 3.4987444 18.891432 4.4838037 19.126953 5.3847656 A 0.50004997 0.50004997 0 0 0 19.126953 5.3886719 L 18.585938 7.25 A 0.50004997 0.50004997 0 0 0 18.582031 7.2675781 C 18.422799 7.9087204 18.631248 8.560029 19.089844 8.9589844 L 14.236328 21 L 14.117188 21 C 12.972181 21 12 21.8796 12 23 L 11.117188 23 C 9.9721731 23 9 23.8796 9 25 L 9 25.300781 L 9 26 L 8 26 C 6.3466486 26 5 27.3467 5 29 L 5 29.5 L 5 30.5 A 0.50005 0.50005 0 0 0 5.5 31 L 22.5 31 A 0.50005 0.50005 0 0 0 23 30.5 L 23 29.5 L 23 29 C 23 27.698941 22.161106 26.598021 21 26.183594 L 21 25.300781 L 21 25 C 21 23.918709 20.092461 23.070231 19 23.011719 L 19 23 C 19 22.068099 18.324634 21.309263 17.439453 21.078125 L 21.878906 10.066406 C 22.099214 10.066938 22.315491 10.02281 22.513672 9.9433594 C 22.863136 9.8030594 23.173957 9.5652281 23.388672 9.2363281 A 0.50004997 0.50004997 0 0 0 23.414062 9.1953125 L 24.314453 7.4765625 C 25.111934 6.9897023 25.716524 6.1990502 25.923828 5.2324219 C 26.280281 3.5704219 25.381904 1.8859531 23.804688 1.2519531 C 23.410383 1.0934531 23.001432 1.0126375 22.595703 1.0019531 z M 22.568359 2 C 22.858132 2.0082547 23.150611 2.0678656 23.433594 2.1816406 C 24.565523 2.6366406 25.199185 3.8306375 24.943359 5.0234375 C 24.687543 6.2163375 23.61936 7.0471469 22.400391 6.9980469 A 0.50005 0.50005 0 1 0 22.359375 7.9960938 C 22.552462 8.0039377 22.740963 7.9898818 22.927734 7.9667969 L 22.546875 8.6953125 C 22.461315 8.8228125 22.303545 8.950125 22.140625 9.015625 C 21.975113 9.081625 21.823403 9.0798281 21.746094 9.0488281 L 19.890625 8.3007812 C 19.713418 8.2297813 19.475929 7.8189656 19.552734 7.5097656 L 19.785156 6.7050781 C 19.904614 6.8521974 20.033881 6.9921472 20.179688 7.1210938 A 0.50005 0.50005 0 1 0 20.84375 6.3730469 C 19.929902 5.5648469 19.73209 4.2235469 20.373047 3.1855469 C 20.853762 2.4070469 21.69904 1.9752359 22.568359 2 z M 19.984375 9.4160156 L 20.912109 9.7890625 L 16.392578 21 L 15.314453 21 L 19.984375 9.4160156 z M 14.117188 22 L 16.882812 22 C 17.530159 22 18 22.4584 18 23 L 13 23 C 13 22.4584 13.469853 22 14.117188 22 z M 11.117188 24 L 18.882812 24 C 19.530159 24 20 24.4584 20 25 L 20 25.300781 L 20 26 L 10 26 L 10 25.300781 L 10 25 C 10 24.4584 10.46984 24 11.117188 24 z M 8 27 L 20 27 C 21.116649 27 22 27.8834 22 29 L 22 29.5 L 22 30 L 6 30 L 6 29.5 L 6 29 C 6 27.8834 6.8833514 27 8 27 z " color="#000" enable-background="accumulate" font-family="sans-serif" font-weight="400" overflow="visible"/></svg>